<svg>
  <symbol id="search" width="16" height="16" viewBox="0 0 16 16" fill="none" xmlns="http://www.w3.org/2000/svg">
    <circle cx="6.52174" cy="6.52174" r="5.52174" stroke="white" stroke-width="2"/>
    <path d="M14.2929 15.7071C14.6834 16.0976 15.3166 16.0976 15.7071 15.7071C16.0976 15.3166 16.0976 14.6834 15.7071 14.2929L14.2929 15.7071ZM11.468 10.0538L10.7609 9.34665L9.34666 10.7609L10.0538 11.468L11.468 10.0538ZM15.7071 14.2929L11.468 10.0538L10.0538 11.468L14.2929 15.7071L15.7071 14.2929Z" fill="white"/>
  </symbol>
  <symbol id="site-logo" xmlns="http://www.w3.org/2000/svg" width="42" height="40" viewBox="0 0 42 40" fill="none">
    <path d="M11 12.4286L1 22.4286L11 32.4286" stroke="black" stroke-width="2" stroke-linecap="round" stroke-linejoin="round"/>
    <path d="M31 12.4286L41 22.4286L31 32.4286" stroke="black" stroke-width="2" stroke-linecap="round" stroke-linejoin="round"/>
    <path d="M24.5349 5.04265L15.9481 37.089C15.8314 37.5245 15.3838 37.783 14.9483 37.6663C14.5129 37.5496 14.2544 37.102 14.3711 36.6665L22.9579 4.62008C23.0746 4.1846 23.5222 3.92617 23.9577 4.04285C24.3932 4.15954 24.6516 4.60716 24.5349 5.04265Z" fill="black"/>
    <path d="M22.9579 4.62008C23.0746 4.1846 23.5222 3.92617 23.9577 4.04285C24.3932 4.15954 24.6516 4.60716 24.5349 5.04265L23.4891 8.94578L21.9121 8.52321L22.9579 4.62008Z" fill="#D9D9D9"/>
    <path d="M25.6948 7.02249L28.8488 7.86761" stroke="black" stroke-linecap="round"/>
    <path d="M17.8096 4.9097L20.9637 5.75482" stroke="black" stroke-linecap="round"/>
    <path d="M19.6457 1.21124L21.2833 4.0205" stroke="black" stroke-linecap="round"/>
    <path d="M17.5865 8.89651L20.4093 7.28245" stroke="black" stroke-linecap="round"/>
    <path d="M25.2756 8.58643L26.9133 11.3957" stroke="black" stroke-linecap="round"/>
    <path d="M26.1497 5.32446L28.9725 3.7104" stroke="black" stroke-linecap="round"/>
  </symbol>
  <symbol id="menu-arrow" xmlns="http://www.w3.org/2000/svg" width="11" height="7" viewBox="0 0 11 7" fill="none">
    <path d="M10 1L5.5 6L1 1" stroke="black" stroke-width="0.75" stroke-linecap="round" stroke-linejoin="round"/>
  </symbol>
  <symbol id="circle-theme-changer" xmlns="http://www.w3.org/2000/svg" width="21" height="20" viewBox="0 0 21 20" fill="none">
    <path d="M20.25 10C20.25 15.379 15.7787 19.75 10.25 19.75C4.7213 19.75 0.25 15.379 0.25 10C0.25 4.62101 4.7213 0.25 10.25 0.25C15.7787 0.25 20.25 4.62101 20.25 10Z" fill="white" stroke="black" stroke-width="0.5"/>
  </symbol>
  <symbol id="icon-sun" viewBox="0 0 32 32">
    <path d="M16 26c1.105 0 2 0.895 2 2v2c0 1.105-0.895 2-2 2s-2-0.895-2-2v-2c0-1.105 0.895-2 2-2zM16 6c-1.105 0-2-0.895-2-2v-2c0-1.105 0.895-2 2-2s2 0.895 2 2v2c0 1.105-0.895 2-2 2zM30 14c1.105 0 2 0.895 2 2s-0.895 2-2 2h-2c-1.105 0-2-0.895-2-2s0.895-2 2-2h2zM6 16c0 1.105-0.895 2-2 2h-2c-1.105 0-2-0.895-2-2s0.895-2 2-2h2c1.105 0 2 0.895 2 2zM25.899 23.071l1.414 1.414c0.781 0.781 0.781 2.047 0 2.828s-2.047 0.781-2.828 0l-1.414-1.414c-0.781-0.781-0.781-2.047 0-2.828s2.047-0.781 2.828 0zM6.101 8.929l-1.414-1.414c-0.781-0.781-0.781-2.047 0-2.828s2.047-0.781 2.828 0l1.414 1.414c0.781 0.781 0.781 2.047 0 2.828s-2.047 0.781-2.828 0zM25.899 8.929c-0.781 0.781-2.047 0.781-2.828 0s-0.781-2.047 0-2.828l1.414-1.414c0.781-0.781 2.047-0.781 2.828 0s0.781 2.047 0 2.828l-1.414 1.414zM6.101 23.071c0.781-0.781 2.047-0.781 2.828 0s0.781 2.047 0 2.828l-1.414 1.414c-0.781 0.781-2.047 0.781-2.828 0s-0.781-2.047 0-2.828l1.414-1.414z"></path>
    <path d="M16 8c-4.418 0-8 3.582-8 8s3.582 8 8 8c4.418 0 8-3.582 8-8s-3.582-8-8-8zM16 21c-2.761 0-5-2.239-5-5s2.239-5 5-5 5 2.239 5 5-2.239 5-5 5z"></path>
  </symbol>
  <symbol id="football-cursor" xmlns="http://www.w3.org/2000/svg" width="23" height="23" viewBox="0 0 23 23" fill="none">
    <path d="M11.7279 20.2132L3.24264 3.24259L20.2132 11.7279L13.1809 13.1808L11.7279 20.2132Z" fill="black" stroke="black" stroke-width="5" stroke-linejoin="round"/>
  </symbol>
</svg>